<svg xmlns="http://www.w3.org/2000/svg" viewBox="0 0 206.49 97.71"><defs><style>.cls-1{fill:#C51D25;}</style></defs><title>logo 1</title><g id="Layer_2" data-name="Layer 2"><g id="_1" data-name="1"><path class="cls-1" d="M1.28,52.65V24a1.34,1.34,0,0,1,.21-.85c.15-.17.55-.27,1.22-.3s1.79,0,3.35,0v25.4h6V51.8a.81.81,0,0,1-.23.68,1,1,0,0,1-.62.17Z" transform="translate(-1.28)"/><path class="cls-1" d="M14.43,52.65v-29c.17-.57.46-.85.86-.85H25.53c0,1.28,0,2.22,0,2.81a3,3,0,0,1-.21,1.18.67.67,0,0,1-.6.27H19.21V48.38h6c0,1.34,0,2.31,0,2.91A2.6,2.6,0,0,1,25,52.42a.7.7,0,0,1-.6.23Zm.34-14V34.29h9.61c0,1.8,0,3-.11,3.53s-.3.83-.7.83Z" transform="translate(-1.28)"/><path class="cls-1" d="M27.24,27.25V23.62a.75.75,0,0,1,.85-.85H42.61v3.62a.92.92,0,0,1-.19.69,1,1,0,0,1-.66.17Zm5.21,25.4V23.19h4.78V51.8a.75.75,0,0,1-.21.6,2.78,2.78,0,0,1-1.22.21C35.13,52.64,34,52.65,32.45,52.65Z" transform="translate(-1.28)"/><path class="cls-1" d="M45.56,20.67a1.23,1.23,0,0,1-1-.66,8.24,8.24,0,0,1-.81-1.94,13.76,13.76,0,0,1,1.41-1.62c.57-.57,1.15-1.12,1.75-1.65s1.12-1,1.58-1.28a2.55,2.55,0,0,1,.85-.49c.54,0,1,.38,1.41,1.15a7.28,7.28,0,0,1,.77,2.35,7.06,7.06,0,0,1-1.28,1.15c-.6.46-1.23.92-1.9,1.37s-1.27.84-1.79,1.15A3.24,3.24,0,0,1,45.56,20.67Zm-.81,32V24.86a3.77,3.77,0,0,1,.21-1.5c.14-.28.55-.45,1.24-.51s1.82-.08,3.41-.08v29a.75.75,0,0,1-.21.6,2.78,2.78,0,0,1-1.22.21C47.51,52.64,46.37,52.65,44.75,52.65Z" transform="translate(-1.28)"/><path class="cls-1" d="M59.31,53.08a8.76,8.76,0,0,1-2.61-.36,4.64,4.64,0,0,1-2-1.26,6.68,6.68,0,0,1-1.4-2.52,20,20,0,0,1-.84-4.14,58.65,58.65,0,0,1-.27-6.11,41.85,41.85,0,0,1,.51-7.09,18,18,0,0,1,1.39-4.71,9,9,0,0,1,2-2.82,6.07,6.07,0,0,1,2.31-1.37,8.07,8.07,0,0,1,2.34-.36,7.39,7.39,0,0,1,2.69.36,2,2,0,0,1,1.12.94,3,3,0,0,1,.25,1.22,5.89,5.89,0,0,1-.21,1.6,8.78,8.78,0,0,1-.47,1.3,2.51,2.51,0,0,0-.6-.36,5.07,5.07,0,0,0-.75-.26,3.45,3.45,0,0,0-.87-.11,3.77,3.77,0,0,0-1.41.28,3.29,3.29,0,0,0-1.28,1,6.31,6.31,0,0,0-1,2,18.27,18.27,0,0,0-.68,3.25,37.46,37.46,0,0,0-.26,4.74,44.72,44.72,0,0,0,.2,4.61A12.43,12.43,0,0,0,58,45.8a3.05,3.05,0,0,0,1,1.5,2.65,2.65,0,0,0,1.53.44,9.19,9.19,0,0,0,1.86-.17,5.53,5.53,0,0,0,1.47-.47,7.14,7.14,0,0,1,.45,1.31,5.91,5.91,0,0,1,.2,1.51,2.55,2.55,0,0,1-.62,1.71,3.78,3.78,0,0,1-1.8,1.09A9.55,9.55,0,0,1,59.31,53.08Z" transform="translate(-1.28)"/><path class="cls-1" d="M66.91,52.65V24.86a3.77,3.77,0,0,1,.21-1.5c.14-.28.55-.45,1.24-.51s1.82-.08,3.41-.08v29a.75.75,0,0,1-.21.6,2.78,2.78,0,0,1-1.22.21C69.67,52.64,68.53,52.65,66.91,52.65Z" transform="translate(-1.28)"/><path class="cls-1" d="M76.6,52.74l-1.33,0c-.56,0-1.13-.07-1.7-.13l7.13-29q.17-.9,1.92-.9c.4,0,.8,0,1.22,0a7.92,7.92,0,0,1,1,.13l7.13,29a.55.55,0,0,1-.3.64,4.78,4.78,0,0,1-1.83.21l-1.16,0-1.62-.07L84,37.58c-.15-.77-.29-1.6-.43-2.5s-.27-1.83-.39-2.79-.21-1.9-.29-2.78c-.09.88-.2,1.81-.33,2.78s-.25,1.9-.38,2.79-.28,1.73-.45,2.5L78.78,51.84a1,1,0,0,1-.41.66A3.75,3.75,0,0,1,76.6,52.74Zm1.83-6.87V41.55h9.65v4.32Z" transform="translate(-1.28)"/><path class="cls-1" d="M1.28,90.23v-29c0-.43.09-.67.26-.75a1.55,1.55,0,0,1,.59-.1H5.76L6,68.45l-1.37.9c.12.6.22,1.17.3,1.73s.18,1.22.28,2,.2,1.65.3,2.59.18,2,.26,3,.1,2.2.1,3.37L6,89.37a.64.64,0,0,1-.26.6,3,3,0,0,1-1.26.21C3.84,90.21,2.76,90.23,1.28,90.23Zm7.6-7.13-2-6c-.11-.34-.26-.86-.44-1.56s-.4-1.49-.62-2.37-.46-1.77-.69-2.67S4.69,68.79,4.5,68s-.39-1.62-.61-2.56l1.87-5.12,3.38,10.5c.22.66.41,1.25.55,1.79S10,73.63,10,74s.18.76.26,1.15c.06-.39.13-.79.21-1.17s.2-.83.32-1.35.3-1.08.49-1.7l2.91-9.74,2.22,4.36c-.23.91-.44,1.74-.62,2.49s-.39,1.58-.62,2.48-.46,1.78-.7,2.65-.46,1.65-.64,2.35a16,16,0,0,1-.5,1.6l-2,5.68a.41.41,0,0,1-.46.3Zm5.3,7.13.21-8.12c0-1.16.08-2.28.15-3.35s.15-2.08.25-3,.2-1.82.28-2.6.17-1.46.26-2,.18-1.15.3-1.77l-1.41-1V61.19a2.52,2.52,0,0,1,.32-.66.63.63,0,0,1,.53-.19h4v29a.73.73,0,0,1-.22.6,2.61,2.61,0,0,1-1.21.21C17,90.21,15.83,90.23,14.18,90.23Z" transform="translate(-1.28)"/><path class="cls-1" d="M23.91,90.31c-.31,0-.75,0-1.32,0s-1.14-.07-1.71-.13l7.13-29q.16-.9,1.92-.9c.4,0,.8,0,1.22,0a10.1,10.1,0,0,1,1,.13l7.13,29a.55.55,0,0,1-.29.64,4.85,4.85,0,0,1-1.84.21l-1.15,0-1.63-.06L31.3,75.15c-.15-.76-.29-1.6-.43-2.49s-.27-1.83-.38-2.8-.22-1.89-.3-2.78c-.09.89-.19,1.81-.32,2.78s-.26,1.9-.39,2.8-.27,1.73-.45,2.49L26.09,89.41a1,1,0,0,1-.41.67A4,4,0,0,1,23.91,90.31Zm1.84-6.87V79.12H35.4v4.32Z" transform="translate(-1.28)"/><path class="cls-1" d="M39.75,90.23,46,73.66l2.6-1.75c.26-1.45.51-2.73.77-3.82s.54-2.19.85-3.27l1.11-3.71a1,1,0,0,1,.37-.54A3.31,3.31,0,0,1,53,60.38c.68,0,1.83,0,3.45,0L50.68,77.12l-2,.51c-.4,1.6-.76,3-1.09,4.16s-.71,2.35-1.13,3.48l-1.62,4.36a1.09,1.09,0,0,1-1,.6Zm11.4,0-1.62-5c-.37-1.13-.71-2.29-1-3.48s-.66-2.56-1.06-4.16l-1.58-1.71-5-14.77c-.08-.28,0-.48.15-.58a4.91,4.91,0,0,1,1.54-.19c.84,0,2.19,0,4,0l1.23,4.48c.32,1.11.59,2.21.84,3.29s.49,2.35.74,3.8l1.71.94,5.77,16.69A.55.55,0,0,1,57,90c-.06.13-.24.2-.55.2Z" transform="translate(-1.28)"/><path class="cls-1" d="M59.14,90.23V62.43a3.68,3.68,0,0,1,.21-1.49c.14-.29.55-.46,1.24-.52s1.82-.08,3.41-.08v29a.73.73,0,0,1-.21.6,2.63,2.63,0,0,1-1.22.21C61.9,90.21,60.76,90.23,59.14,90.23Z" transform="translate(-1.28)"/><path class="cls-1" d="M67,90.23v-29c0-.43.09-.67.26-.75a1.57,1.57,0,0,1,.6-.1h3.63l.25,8.11-1.36.9c.11.6.21,1.17.29,1.73s.18,1.22.28,2,.2,1.65.3,2.59.19,2,.26,3,.1,2.2.1,3.37l.13,7.3a.66.66,0,0,1-.25.6,3,3,0,0,1-1.26.21C69.55,90.21,68.47,90.23,67,90.23Zm7.6-7.13-2-6q-.18-.51-.45-1.56c-.19-.7-.39-1.49-.62-2.37l-.69-2.67c-.22-.9-.43-1.73-.61-2.5s-.4-1.62-.62-2.56l1.88-5.12,3.37,10.5c.23.66.41,1.25.55,1.79s.26,1,.35,1.37.17.76.25,1.15c.06-.39.13-.79.22-1.17s.19-.83.32-1.35.29-1.08.49-1.7l2.9-9.74,2.22,4.36c-.23.91-.43,1.74-.62,2.49s-.39,1.58-.62,2.48-.46,1.78-.7,2.65-.46,1.65-.64,2.35-.35,1.23-.49,1.6L77,82.8a.43.43,0,0,1-.47.3Zm5.3,7.13.21-8.12c0-1.16.08-2.28.15-3.35s.16-2.08.26-3,.19-1.82.27-2.6.17-1.46.26-2,.19-1.15.3-1.77l-1.41-1V61.19a2.52,2.52,0,0,1,.32-.66.63.63,0,0,1,.53-.19h4v29a.7.7,0,0,1-.22.6,2.58,2.58,0,0,1-1.21.21C82.7,90.21,81.54,90.23,79.89,90.23Z" transform="translate(-1.28)"/><path class="cls-1" d="M95,90.65A8.67,8.67,0,0,1,91.48,90a5,5,0,0,1-2.37-2.37,14.73,14.73,0,0,1-1.32-4.74,56.65,56.65,0,0,1-.43-7.77,36.35,36.35,0,0,1,.9-9.12A8.43,8.43,0,0,1,91,61.3a7.22,7.22,0,0,1,4.54-1.39,8.08,8.08,0,0,1,3.55.71A5.23,5.23,0,0,1,101.41,63a14.21,14.21,0,0,1,1.3,4.59,54.78,54.78,0,0,1,.4,7.34,40.84,40.84,0,0,1-.85,9.44,8.72,8.72,0,0,1-2.63,4.84A7,7,0,0,1,95,90.65Zm.26-5a1.71,1.71,0,0,0,1.6-1.07,10,10,0,0,0,.75-3.41c.14-1.57.21-3.6.21-6.11s0-4.47-.15-6a9,9,0,0,0-.66-3.26,1.7,1.7,0,0,0-1.62-1A1.74,1.74,0,0,0,93.85,66a10.78,10.78,0,0,0-.79,3.57q-.24,2.48-.24,6.66c0,2.22.06,4,.18,5.42a8.2,8.2,0,0,0,.7,3.1A1.72,1.72,0,0,0,95.3,85.7Z" transform="translate(-1.28)"/><path class="cls-1" d="M207.69,29.38c-.32-7.69-1-17.2-8.91-20.94C193.21,5.8,187.46,7,183,10.35a16.41,16.41,0,0,0-3.91-6.46A15.06,15.06,0,0,0,162.9,1.26a15.78,15.78,0,0,0-7.25,6.57,14.77,14.77,0,0,0-4.53-4.75c-5.69-3.69-13.76-1.9-18.37,2.71a21.57,21.57,0,0,0-5.27,10.38,14.62,14.62,0,0,0-3.31-1.2,15.41,15.41,0,0,0-16.5,7.62c-4.22,7.72-2.15,17.21-.52,25.36,2.68,13.43,6.71,30.36,15.41,41.36,7.13,9,18,8.39,28.52,8.39,13.55,0,27.39-.44,40.79-2.58a3.2,3.2,0,0,0,2.67-2.31C201.46,72.5,208.6,50.92,207.69,29.38Zm-80,54c-8-11.46-11.76-28.53-13.94-42-.83-5.15-2.25-12.63,2-16.78,3.93-3.83,9.19-2.2,11.75,2.06,4.5,7.48,5.45,18.55,6.34,27,.51,4.86,8.18,4.91,7.66,0-.87-8.28-1.77-22.41-7.4-31.21.51-3.76,1.4-8.43,4.13-11.17,6.3-6.3,11.61.26,13.18,6.19a81.48,81.48,0,0,1,1.85,28c-.47,4.91,7.2,4.88,7.67,0,.8-8.31,0-16.26-1.19-24.48-.05-.31-.1-.64-.15-1,0-.1.06-.19.08-.3.77-4.41,2.06-9.73,6.75-11.49,7.38-2.76,9.43,4.71,10.47,10.07,1.72,8.78.92,18.07-.45,26.83-.75,4.82,6.63,6.9,7.4,2a104.64,104.64,0,0,0,1.41-23.24c-.09-1.43-.21-3-.37-4.54,2.06-3.11,5.06-5.31,9.14-4.27,4.42,1.12,5.17,4.87,5.66,8.91a95.92,95.92,0,0,1-.11,20.95,142.71,142.71,0,0,1-11.17,43c-10.51,1.56-21.33,1.87-31.92,2C146.79,90.16,133.9,92.28,127.64,83.34Z" transform="translate(-1.28)"/></g></g></svg>