<?xml version="1.0" encoding="utf-8"?>
<!-- Generator: Adobe Illustrator 22.1.0, SVG Export Plug-In . SVG Version: 6.00 Build 0)  -->
<svg version="1.1" id="Layer_1" xmlns="http://www.w3.org/2000/svg" xmlns:xlink="http://www.w3.org/1999/xlink" x="0px" y="0px"
	 viewBox="0 0 102.6 97.7" style="enable-background:new 0 0 102.6 97.7;" xml:space="preserve">
<style type="text/css">
	.st0{fill:#392C23;}
</style>
<title>mao</title>
<g id="Layer_2_1_">
	<g id="_1">
		<path class="st0" d="M102.5,29.4c-0.3-7.7-1-17.2-8.9-20.9C88,5.8,82.3,7,77.8,10.3c-0.8-2.4-2.1-4.6-3.9-6.5
			c-4.4-4-10.7-5-16.2-2.6c-3,1.4-5.6,3.7-7.3,6.6c-1.1-1.9-2.6-3.5-4.5-4.8c-5.7-3.7-13.8-1.9-18.4,2.7c-2.8,2.8-4.3,6.5-5.3,10.4
			c-1.1-0.5-2.2-0.9-3.3-1.2c-6.6-1.3-13.2,1.7-16.5,7.6C-1.7,30.3,0.3,39.8,2,48c2.7,13.4,6.7,30.3,15.4,41.3
			c7.1,9,18,8.4,28.5,8.4c13.5,0,27.4-0.4,40.8-2.6C88,95,89,94,89.4,92.8C96.3,72.5,103.4,50.9,102.5,29.4z M22.5,83.4
			c-8-11.5-11.8-28.5-13.9-42c-0.8-5.2-2.3-12.6,2-16.8c3.9-3.8,9.2-2.2,11.7,2.1c4.5,7.5,5.5,18.5,6.3,27c0.5,4.9,8.2,4.9,7.7,0
			c-0.9-8.3-1.8-22.4-7.4-31.2c0.5-3.8,1.4-8.4,4.1-11.2c6.3-6.3,11.6,0.3,13.2,6.2c2.2,9.1,2.8,18.6,1.8,27.9
			c-0.5,4.9,7.2,4.9,7.7,0c0.8-8.3,0-16.3-1.2-24.5l-0.2-1c0-0.1,0.1-0.2,0.1-0.3c0.8-4.4,2-9.7,6.8-11.5c7.4-2.8,9.4,4.7,10.5,10.1
			c1.7,8.8,0.9,18.1-0.4,26.8c-0.8,4.8,6.6,6.9,7.4,2c1.3-7.6,1.8-15.4,1.4-23.2c-0.1-1.4-0.2-3-0.4-4.5c2.1-3.1,5.1-5.3,9.2-4.3
			c4.4,1.1,5.2,4.9,5.7,8.9c0.7,7,0.7,14-0.1,21c-1.5,14.8-5.2,29.3-11.2,43c-10.5,1.6-21.3,1.9-31.9,2
			C41.6,90.2,28.7,92.3,22.5,83.4L22.5,83.4z"/>
	</g>
</g>
</svg>
